<svg width="16" height="16" viewBox="0 0 16 16" fill="none" xmlns="http://www.w3.org/2000/svg">
<path d="M15.1041 7.99998C15.1041 11.9235 11.9235 15.1041 7.99998 15.1041C4.07645 15.1041 0.895813 11.9235 0.895813 7.99998C0.895813 4.07645 4.07645 0.895813 7.99998 0.895813C11.9235 0.895813 15.1041 4.07645 15.1041 7.99998ZM7.17825 11.7616L12.4491 6.49075C12.6281 6.31177 12.6281 6.02156 12.4491 5.84258L11.8009 5.19441C11.6219 5.0154 11.3317 5.0154 11.1527 5.19441L6.85415 9.49294L4.84725 7.48604C4.66827 7.30707 4.37806 7.30707 4.19905 7.48604L3.55088 8.13421C3.3719 8.31319 3.3719 8.6034 3.55088 8.78238L6.53005 11.7615C6.70906 11.9406 6.99924 11.9406 7.17825 11.7616Z" fill="#00B341"/>
</svg>
